<svg width="57" height="57" viewBox="0 0 57 57" fill="none" xmlns="http://www.w3.org/2000/svg">
<g clip-path="url(#clip0_103_5525)">
<rect x="14" y="17" width="46" height="27" fill="#1720E9"/>
<rect x="6.99561" y="46.5696" width="65" height="3" transform="rotate(-33.0962 6.99561 46.5696)" fill="white"/>
<rect x="7.54175" y="47.4072" width="65" height="1" transform="rotate(-33.0962 7.54175 47.4072)" fill="#FF0000"/>
<rect x="7.71118" y="12.429" width="65" height="3" transform="rotate(30.2129 7.71118 12.429)" fill="white"/>
<rect x="7.20801" y="13.2932" width="65" height="1" transform="rotate(30.2129 7.20801 13.2932)" fill="#FF0000"/>
<rect x="30" y="17" width="9" height="27" fill="white"/>
<rect x="14" y="26" width="46" height="8" fill="white"/>
<rect x="14" y="28" width="46" height="4" fill="#FF0000"/>
<rect x="32" y="17" width="5" height="27" fill="#FF0000"/>
<rect x="11" y="14" width="48" height="39" fill="black" fill-opacity="0.35"/>
</g>
<g clip-path="url(#clip1_103_5525)">
<rect x="2" y="13" width="46" height="27" fill="#1720E9"/>
<rect x="-5.00439" y="42.5696" width="65" height="3" transform="rotate(-33.0962 -5.00439 42.5696)" fill="white"/>
<rect x="-4.45825" y="43.4072" width="65" height="1" transform="rotate(-33.0962 -4.45825 43.4072)" fill="#FF0000"/>
<rect x="-4.28882" y="8.42896" width="65" height="3" transform="rotate(30.2129 -4.28882 8.42896)" fill="white"/>
<rect x="-4.79199" y="9.29321" width="65" height="1" transform="rotate(30.2129 -4.79199 9.29321)" fill="#FF0000"/>
<rect x="18" y="13" width="9" height="27" fill="white"/>
<rect x="2" y="22" width="46" height="8" fill="white"/>
<rect x="2" y="24" width="46" height="4" fill="#FF0000"/>
<rect x="20" y="13" width="5" height="27" fill="#FF0000"/>
</g>
<defs>
<clipPath id="clip0_103_5525">
<rect x="14" y="17" width="41" height="27" rx="4" fill="white"/>
</clipPath>
<clipPath id="clip1_103_5525">
<rect x="2" y="13" width="41" height="27" rx="4" fill="white"/>
</clipPath>
</defs>
</svg>
