<svg width="438" height="438" viewBox="0 0 438 438" fill="none" xmlns="http://www.w3.org/2000/svg">
<g clip-path="url(#clip0_512_5948)">
<path d="M-255 254.306L181.285 690.591" stroke="white" stroke-width="2"/>
<path d="M-226.716 226.022L209.569 662.307" stroke="white" stroke-width="2"/>
<path d="M-198.431 197.738L237.853 634.023" stroke="white" stroke-width="2"/>
<path d="M-170.147 169.453L266.138 605.738" stroke="white" stroke-width="2"/>
<path d="M-141.863 141.169L294.422 577.454" stroke="white" stroke-width="2"/>
<path d="M-113.579 112.885L322.706 549.17" stroke="white" stroke-width="2"/>
<path d="M-85.2944 84.6006L350.991 520.885" stroke="white" stroke-width="2"/>
<path d="M-57.0101 56.3164L379.275 492.601" stroke="white" stroke-width="2"/>
<path d="M-28.7258 28.0322L407.559 464.317" stroke="white" stroke-width="2"/>
<path d="M-0.441589 -0.252441L456.558 456.748" stroke="white" stroke-width="2"/>
<path d="M27.8427 -28.5366L464.128 407.748" stroke="white" stroke-width="2"/>
<path d="M56.127 -56.8208L492.412 379.464" stroke="white" stroke-width="2"/>
<path d="M84.4113 -85.105L520.696 351.18" stroke="white" stroke-width="2"/>
<path d="M112.695 -113.389L548.98 322.896" stroke="white" stroke-width="2"/>
<path d="M140.98 -141.674L577.265 294.611" stroke="white" stroke-width="2"/>
<path d="M169.264 -169.958L605.549 266.327" stroke="white" stroke-width="2"/>
<path d="M197.548 -198.242L633.833 238.043" stroke="white" stroke-width="2"/>
<path d="M225.833 -226.526L662.117 209.759" stroke="white" stroke-width="2"/>
</g>
<defs>
<clipPath id="clip0_512_5948">
<rect width="438" height="438" fill="white"/>
</clipPath>
</defs>
</svg>
