<svg width="59" height="67" viewBox="0 0 59 67" fill="none" xmlns="http://www.w3.org/2000/svg">
<path fill-rule="evenodd" clip-rule="evenodd" d="M32.7961 11.0561C32.7961 8.80836 33.6871 6.65282 35.2728 5.06346C36.8584 3.4741 39.0083 2.58105 41.2493 2.58105H50.5917C57.061 2.58105 56.9914 2.58105 56.9878 8.99649C56.9807 18.6726 56.9758 27.4922 56.999 36.7243C57.0329 50.0343 48.1298 59.3827 43.4604 62.6012C33.993 68.662 32.802 57.7901 32.802 56.2087C32.802 41.6377 32.7961 25.334 32.7961 11.0561Z" stroke="white" stroke-width="2.03703"/>
<path fill-rule="evenodd" clip-rule="evenodd" d="M26.1971 10.475C26.1971 8.22731 25.3061 6.07176 23.7205 4.4824C22.1349 2.89304 19.985 2 17.744 2H8.40165C1.93235 2 2.00197 2 2.00554 8.41544C2.01269 18.0916 2.02352 27.4921 2.0003 36.7241C1.96638 50.0342 10.8695 59.3826 15.5389 62.6011C25.0063 68.6619 26.1973 57.79 26.1973 56.2085C26.1973 41.6376 26.1971 24.753 26.1971 10.475Z" stroke="white" stroke-width="2.03703"/>
<path fill-rule="evenodd" clip-rule="evenodd" d="M2.00122 6.55957C2.00251 6.57845 2.35086 17.168 4.97379 23.8725C16.0912 52.2895 36.6838 46.3582 48.5508 31.9888C56.924 21.8492 57.0002 14.2935 57.0002 14.2935C57.0002 14.2935 56.9718 31.1017 56.9718 38.5674C56.9718 46.6004 52.0149 53.1074 52.0149 53.1074C52.0149 53.1074 55.4971 39.7484 43.0998 51.4431C39.1003 55.2159 32.8029 63.3965 26.1985 65.391C18.0446 67.8531 2.00122 54.8313 2.00122 37.2658V6.55957Z" stroke="white" stroke-width="2.03703"/>
</svg>
