<svg width="301" height="301" viewBox="0 0 301 301" fill="none" xmlns="http://www.w3.org/2000/svg">
<path d="M1 1V300" stroke="#404040"/>
<path d="M24 1V300" stroke="#404040"/>
<path d="M47 1V300" stroke="#404040"/>
<path d="M70 1V300" stroke="#404040"/>
<path d="M93 1V300" stroke="#404040"/>
<path d="M116 1V300" stroke="#404040"/>
<path d="M139 1V300" stroke="#404040"/>
<path d="M162 1V300" stroke="#404040"/>
<path d="M185 1V300" stroke="#404040"/>
<path d="M208 1V300" stroke="#404040"/>
<path d="M231 1V300" stroke="#404040"/>
<path d="M254 1V300" stroke="#404040"/>
<path d="M277 1V300" stroke="#404040"/>
<path d="M300 1V300" stroke="#404040"/>
<path d="M1 300L300 300" stroke="#404040"/>
<path d="M1 277L300 277" stroke="#404040"/>
<path d="M1 254L300 254" stroke="#404040"/>
<path d="M1 231L300 231" stroke="#404040"/>
<path d="M1 208L300 208" stroke="#404040"/>
<path d="M1 185L300 185" stroke="#404040"/>
<path d="M1 162L300 162" stroke="#404040"/>
<path d="M1 139L300 139" stroke="#404040"/>
<path d="M1 116L300 116" stroke="#404040"/>
<path d="M1 93L300 93" stroke="#404040"/>
<path d="M1 70L300 70" stroke="#404040"/>
<path d="M1 47L300 47" stroke="#404040"/>
<path d="M1 24L300 24" stroke="#404040"/>
<path d="M1 1L300 1" stroke="#404040"/>
<path d="M1 1V300" stroke="#404040"/>
<path d="M24 1V300" stroke="#404040"/>
<path d="M47 1V300" stroke="#404040"/>
<path d="M70 1V300" stroke="#404040"/>
<path d="M93 1V300" stroke="#404040"/>
<path d="M116 1V300" stroke="#404040"/>
<path d="M139 1V300" stroke="#404040"/>
<path d="M162 1V300" stroke="#404040"/>
<path d="M185 1V300" stroke="#404040"/>
<path d="M208 1V300" stroke="#404040"/>
<path d="M231 1V300" stroke="#404040"/>
<path d="M254 1V300" stroke="#404040"/>
<path d="M277 1V300" stroke="#404040"/>
<path d="M300 1V300" stroke="#404040"/>
<path d="M1 300L300 300" stroke="#404040"/>
<path d="M1 277L300 277" stroke="#404040"/>
<path d="M1 254L300 254" stroke="#404040"/>
<path d="M1 231L300 231" stroke="#404040"/>
<path d="M1 208L300 208" stroke="#404040"/>
<path d="M1 185L300 185" stroke="#404040"/>
<path d="M1 162L300 162" stroke="#404040"/>
<path d="M1 139L300 139" stroke="#404040"/>
<path d="M1 116L300 116" stroke="#404040"/>
<path d="M1 93L300 93" stroke="#404040"/>
<path d="M1 70L300 70" stroke="#404040"/>
<path d="M1 47L300 47" stroke="#404040"/>
<path d="M1 24L300 24" stroke="#404040"/>
<path d="M1 1L300 1" stroke="#404040"/>
<path d="M1 1V300" stroke="#404040"/>
<path d="M24 1V300" stroke="#404040"/>
<path d="M47 1V300" stroke="#404040"/>
<path d="M70 1V300" stroke="#404040"/>
<path d="M93 1V300" stroke="#404040"/>
<path d="M116 1V300" stroke="#404040"/>
<path d="M139 1V300" stroke="#404040"/>
<path d="M162 1V300" stroke="#404040"/>
<path d="M185 1V300" stroke="#404040"/>
<path d="M208 1V300" stroke="#404040"/>
<path d="M231 1V300" stroke="#404040"/>
<path d="M254 1V300" stroke="#404040"/>
<path d="M277 1V300" stroke="#404040"/>
<path d="M300 1V300" stroke="#404040"/>
<path d="M1 300L300 300" stroke="#404040"/>
<path d="M1 277L300 277" stroke="#404040"/>
<path d="M1 254L300 254" stroke="#404040"/>
<path d="M1 231L300 231" stroke="#404040"/>
<path d="M1 208L300 208" stroke="#404040"/>
<path d="M1 185L300 185" stroke="#404040"/>
<path d="M1 162L300 162" stroke="#404040"/>
<path d="M1 139L300 139" stroke="#404040"/>
<path d="M1 116L300 116" stroke="#404040"/>
<path d="M1 93L300 93" stroke="#404040"/>
<path d="M1 70L300 70" stroke="#404040"/>
<path d="M1 47L300 47" stroke="#404040"/>
<path d="M1 24L300 24" stroke="#404040"/>
<path d="M1 1L300 1" stroke="#404040"/>
<path d="M1 1V300" stroke="#404040"/>
<path d="M24 1V300" stroke="#404040"/>
<path d="M47 1V300" stroke="#404040"/>
<path d="M70 1V300" stroke="#404040"/>
<path d="M93 1V300" stroke="#404040"/>
<path d="M116 1V300" stroke="#404040"/>
<path d="M139 1V300" stroke="#404040"/>
<path d="M162 1V300" stroke="#404040"/>
<path d="M185 1V300" stroke="#404040"/>
<path d="M208 1V300" stroke="#404040"/>
<path d="M231 1V300" stroke="#404040"/>
<path d="M254 1V300" stroke="#404040"/>
<path d="M277 1V300" stroke="#404040"/>
<path d="M300 1V300" stroke="#404040"/>
<path d="M1 300L300 300" stroke="#404040"/>
<path d="M1 277L300 277" stroke="#404040"/>
<path d="M1 254L300 254" stroke="#404040"/>
<path d="M1 231L300 231" stroke="#404040"/>
<path d="M1 208L300 208" stroke="#404040"/>
<path d="M1 185L300 185" stroke="#404040"/>
<path d="M1 162L300 162" stroke="#404040"/>
<path d="M1 139L300 139" stroke="#404040"/>
<path d="M1 116L300 116" stroke="#404040"/>
<path d="M1 93L300 93" stroke="#404040"/>
<path d="M1 70L300 70" stroke="#404040"/>
<path d="M1 47L300 47" stroke="#404040"/>
<path d="M1 24L300 24" stroke="#404040"/>
<path d="M1 1L300 1" stroke="#404040"/>
<path d="M1 1V300" stroke="#404040"/>
<path d="M24 1V300" stroke="#404040"/>
<path d="M47 1V300" stroke="#404040"/>
<path d="M70 1V300" stroke="#404040"/>
<path d="M93 1V300" stroke="#404040"/>
<path d="M116 1V300" stroke="#404040"/>
<path d="M139 1V300" stroke="#404040"/>
<path d="M162 1V300" stroke="#404040"/>
<path d="M185 1V300" stroke="#404040"/>
<path d="M208 1V300" stroke="#404040"/>
<path d="M231 1V300" stroke="#404040"/>
<path d="M254 1V300" stroke="#404040"/>
<path d="M277 1V300" stroke="#404040"/>
<path d="M300 1V300" stroke="#404040"/>
<path d="M1 300L300 300" stroke="#404040"/>
<path d="M1 277L300 277" stroke="#404040"/>
<path d="M1 254L300 254" stroke="#404040"/>
<path d="M1 231L300 231" stroke="#404040"/>
<path d="M1 208L300 208" stroke="#404040"/>
<path d="M1 185L300 185" stroke="#404040"/>
<path d="M1 162L300 162" stroke="#404040"/>
<path d="M1 139L300 139" stroke="#404040"/>
<path d="M1 116L300 116" stroke="#404040"/>
<path d="M1 93L300 93" stroke="#404040"/>
<path d="M1 70L300 70" stroke="#404040"/>
<path d="M1 47L300 47" stroke="#404040"/>
<path d="M1 24L300 24" stroke="#404040"/>
<path d="M1 1L300 1" stroke="#404040"/>
<path d="M1 1V300" stroke="#404040" stroke-width="2"/>
<path d="M24 1V300" stroke="#404040"/>
<path d="M47 1V300" stroke="#404040"/>
<path d="M70 1V300" stroke="#404040"/>
<path d="M93 1V300" stroke="#404040"/>
<path d="M116 1V300" stroke="#404040"/>
<path d="M139 1V300" stroke="#404040"/>
<path d="M162 1V300" stroke="#404040"/>
<path d="M185 1V300" stroke="#404040"/>
<path d="M208 1V300" stroke="#404040"/>
<path d="M231 1V300" stroke="#404040"/>
<path d="M254 1V300" stroke="#404040"/>
<path d="M277 1V300" stroke="#404040"/>
<path d="M300 1V300" stroke="#404040" stroke-width="2"/>
<path d="M1 300L300 300" stroke="#404040" stroke-width="2"/>
<path d="M1 277L300 277" stroke="#404040"/>
<path d="M1 254L300 254" stroke="#404040"/>
<path d="M1 231L300 231" stroke="#404040"/>
<path d="M1 208L300 208" stroke="#404040"/>
<path d="M1 185L300 185" stroke="#404040"/>
<path d="M1 162L300 162" stroke="#404040"/>
<path d="M1 139L300 139" stroke="#404040"/>
<path d="M1 116L300 116" stroke="#404040"/>
<path d="M1 93L300 93" stroke="#404040"/>
<path d="M1 70L300 70" stroke="#404040"/>
<path d="M1 47L300 47" stroke="#404040"/>
<path d="M1 24L300 24" stroke="#404040"/>
<path d="M1 1L300 1" stroke="#404040" stroke-width="2"/>
</svg>
