<svg width="93" height="71" viewBox="0 0 93 71" fill="none" xmlns="http://www.w3.org/2000/svg">
<path d="M0.000535965 49.7546V35.2224C10.4687 38.6707 25.0009 44.0895 31.7744 53.6956V70.4446C27.0945 59.3607 9.03187 52.2177 0.000535965 49.7546Z" fill="#585858"/>
<path d="M0.000535965 20.6902V35.2225C10.4687 31.7741 25.0009 26.3553 31.7744 16.7493V0.000244141C27.0945 11.0842 9.03187 18.2271 0.000535965 20.6902Z" fill="#585858"/>
<path d="M29.3111 49.7545V35.2223C39.7792 38.6706 54.3115 44.0894 61.085 53.6954V70.4445C56.4051 59.3605 38.3424 52.2176 29.3111 49.7545Z" fill="#D9D9D9"/>
<path d="M29.3111 20.6902V35.2225C39.7792 31.7741 54.3115 26.3553 61.085 16.7493V0.000244141C56.4051 11.0842 38.3424 18.2271 29.3111 20.6902Z" fill="#D9D9D9"/>
<path d="M29.3106 49.7547V35.2225C39.7787 38.6708 54.311 44.0896 61.0845 53.6957V70.4447C56.4046 59.3608 38.3419 52.2178 29.3106 49.7547Z" fill="#898989"/>
<path d="M29.3106 20.6902V35.2225C39.7787 31.7741 54.311 26.3553 61.0845 16.7493V0.000244141C56.4046 11.0842 38.3419 18.2271 29.3106 20.6902Z" fill="#898989"/>
<path d="M61 49.7547V35.2225C71.4682 38.6708 86.0004 44.0896 92.7739 53.6957V70.4447C88.0941 59.3608 70.0314 52.2178 61 49.7547Z" fill="#D9D9D9"/>
<path d="M61 20.6902V35.2225C71.4682 31.7741 86.0004 26.3553 92.7739 16.7493V0.000244141C88.0941 11.0842 70.0314 18.2271 61 20.6902Z" fill="#D9D9D9"/>
</svg>
