<svg width="36" height="36" viewBox="0 0 36 36" fill="none" xmlns="http://www.w3.org/2000/svg">
<path d="M3.22046 22.1357V17.3143C6.69348 18.4584 11.5148 20.2562 13.7621 23.4432V29C12.2094 25.3227 6.21679 22.9529 3.22046 22.1357Z" fill="#B2B2B2"/>
<path d="M3.22046 12.493V17.3143C6.69348 16.1703 11.5148 14.3725 13.7621 11.1855V5.62866C12.2094 9.30597 6.21679 11.6758 3.22046 12.493Z" fill="#B2B2B2"/>
<path d="M12.9449 22.1357V17.3143C16.4179 18.4584 21.2393 20.2562 23.4865 23.4432V29C21.9339 25.3227 15.9412 22.9529 12.9449 22.1357Z" fill="#D9D9D9"/>
<path d="M12.9449 12.493V17.3143C16.4179 16.1703 21.2393 14.3725 23.4865 11.1855V5.62866C21.9339 9.30597 15.9412 11.6758 12.9449 12.493Z" fill="#D9D9D9"/>
<path d="M12.9448 22.1357V17.3143C16.4178 18.4584 21.2391 20.2562 23.4864 23.4432V29C21.9337 25.3227 15.9411 22.9529 12.9448 22.1357Z" fill="#B2B2B2"/>
<path d="M12.9448 12.493V17.3143C16.4178 16.1703 21.2391 14.3725 23.4864 11.1855V5.62866C21.9337 9.30597 15.9411 11.6758 12.9448 12.493Z" fill="#B2B2B2"/>
<path d="M23.4583 22.1357V17.3143C26.9313 18.4584 31.7527 20.2562 33.9999 23.4432V29C32.4473 25.3227 26.4546 22.9529 23.4583 22.1357Z" fill="#B2B2B2"/>
<path d="M23.4583 12.493V17.3143C26.9313 16.1703 31.7527 14.3725 33.9999 11.1855V5.62866C32.4473 9.30597 26.4546 11.6758 23.4583 12.493Z" fill="#B2B2B2"/>
</svg>
