<svg width="313" height="145" viewBox="0 0 313 145" fill="none" xmlns="http://www.w3.org/2000/svg">
<path d="M153.5 8V133.5M153.5 133.5L201 85M153.5 133.5L105 85" stroke="#626262" stroke-width="15" stroke-linecap="round"/>
<path d="M100.189 63H94.1609V54.8551C94.1609 53.722 93.915 52.9524 93.4234 52.5463C92.9317 52.1187 92.0231 51.9049 90.6977 51.9049C89.3723 51.9049 88.4851 52.108 88.0362 52.5142C87.6086 52.899 87.3948 53.6152 87.3948 54.6627H86.7856L86.2725 51.7446H87.3307C87.459 50.8467 87.7476 50.0023 88.1965 49.2113C88.6668 48.4204 89.3509 47.779 90.2488 47.2873C91.168 46.7743 92.3438 46.5177 93.7761 46.5177C95.2298 46.5177 96.4269 46.785 97.3676 47.3194C98.3296 47.8538 99.035 48.5807 99.484 49.4999C99.9543 50.4192 100.189 51.4667 100.189 52.6425V63ZM87.3948 63H81.3663V46.8384H87.01V51.8087L87.3948 51.9691V63ZM110.982 63.3207C109.165 63.3207 107.551 63.0428 106.14 62.4869C104.729 61.9311 103.628 61.0332 102.837 59.7933C102.046 58.5534 101.651 56.9287 101.651 54.9192C101.651 53.1662 102.046 51.6698 102.837 50.4299C103.628 49.1686 104.708 48.2066 106.076 47.5439C107.466 46.8598 109.058 46.5177 110.854 46.5177C112.714 46.5177 114.328 46.8277 115.696 47.4477C117.064 48.0462 118.123 48.9441 118.871 50.1413C119.619 51.317 119.993 52.7707 119.993 54.5023C119.993 54.7802 119.982 55.0368 119.961 55.2719C119.961 55.4857 119.94 55.7422 119.897 56.0415H105.595V52.9952H115.536L114.221 54.8871C114.221 54.6947 114.221 54.513 114.221 54.342C114.221 54.1496 114.221 53.9572 114.221 53.7648C114.221 52.7814 113.965 52.0973 113.451 51.7125C112.96 51.3277 112.051 51.1353 110.726 51.1353C109.358 51.1353 108.428 51.3491 107.936 51.7767C107.466 52.2042 107.231 52.9738 107.231 54.0855V55.6247C107.231 56.7577 107.476 57.5273 107.968 57.9335C108.46 58.3396 109.39 58.5427 110.758 58.5427C111.976 58.5427 112.789 58.4358 113.195 58.2221C113.623 57.9869 113.836 57.6342 113.836 57.1639V56.8111H119.865V57.1959C119.865 58.3931 119.501 59.4513 118.775 60.3705C118.048 61.2898 117.022 62.0166 115.696 62.5511C114.371 63.0641 112.799 63.3207 110.982 63.3207ZM127.603 63H120.324L126.352 55.1757V54.8551L120.324 46.8384H127.699L131.002 51.7125H131.322L134.497 46.8384H141.776L135.748 54.7589V55.0795L141.776 63H134.401L131.098 58.2541H130.777L127.603 63ZM154.52 63H150.287C148.278 63 146.696 62.4976 145.541 61.4929C144.408 60.4881 143.842 58.9382 143.842 56.8432V44.0486H149.87V55.9774C149.87 56.6187 149.988 57.0463 150.223 57.2601C150.479 57.4738 150.95 57.5807 151.634 57.5807H154.52V63ZM154.52 51.7767H141.469V46.8384H154.52V51.7767ZM169.127 63.3207C166.284 63.3207 164.114 62.7969 162.617 61.7494C161.121 60.7019 160.373 59.2482 160.373 57.3883V57.2601H166.401V57.5807C166.401 58.0297 166.583 58.3076 166.946 58.4145C167.331 58.5214 168.069 58.5748 169.159 58.5748C170.207 58.5748 170.869 58.5214 171.147 58.4145C171.425 58.2862 171.564 58.0831 171.564 57.8052C171.564 57.5487 171.457 57.3776 171.243 57.2921C171.03 57.1852 170.549 57.089 169.8 57.0035L165.119 56.4905C163.451 56.3194 162.179 55.8491 161.303 55.0795C160.426 54.2886 159.988 53.209 159.988 51.8408C159.988 50.8788 160.255 50.0023 160.79 49.2113C161.346 48.399 162.233 47.747 163.451 47.2553C164.691 46.7636 166.316 46.5177 168.325 46.5177C170.207 46.5177 171.778 46.7422 173.039 47.1911C174.322 47.6401 175.284 48.3135 175.925 49.2113C176.588 50.0878 176.919 51.1888 176.919 52.5142V52.6425H170.891V52.4501C170.891 52.1722 170.827 51.9477 170.698 51.7767C170.591 51.5843 170.335 51.4453 169.929 51.3598C169.544 51.2743 168.945 51.2315 168.133 51.2315C167.15 51.2315 166.53 51.3064 166.273 51.456C166.038 51.5843 165.92 51.798 165.92 52.0973C165.92 52.3111 166.038 52.4821 166.273 52.6104C166.53 52.7387 167.128 52.8562 168.069 52.9631L171.275 53.3159C173.627 53.5724 175.252 54.0962 176.15 54.8871C177.047 55.6781 177.496 56.7577 177.496 58.1259C177.496 59.1306 177.165 60.0285 176.502 60.8195C175.861 61.5891 174.92 62.1983 173.68 62.6473C172.441 63.0962 170.923 63.3207 169.127 63.3207ZM191.033 63H186.8C184.791 63 183.209 62.4976 182.055 61.4929C180.922 60.4881 180.355 58.9382 180.355 56.8432V44.0486H186.384V55.9774C186.384 56.6187 186.501 57.0463 186.736 57.2601C186.993 57.4738 187.463 57.5807 188.147 57.5807H191.033V63ZM191.033 51.7767H177.982V46.8384H191.033V51.7767ZM201.483 63.3207C199.666 63.3207 198.052 63.0428 196.641 62.4869C195.23 61.9311 194.129 61.0332 193.338 59.7933C192.547 58.5534 192.152 56.9287 192.152 54.9192C192.152 53.1662 192.547 51.6698 193.338 50.4299C194.129 49.1686 195.209 48.2066 196.577 47.5439C197.966 46.8598 199.559 46.5177 201.355 46.5177C203.215 46.5177 204.829 46.8277 206.197 47.4477C207.565 48.0462 208.623 48.9441 209.371 50.1413C210.12 51.317 210.494 52.7707 210.494 54.5023C210.494 54.7802 210.483 55.0368 210.462 55.2719C210.462 55.4857 210.44 55.7422 210.398 56.0415H196.096V52.9952H206.036L204.722 54.8871C204.722 54.6947 204.722 54.513 204.722 54.342C204.722 54.1496 204.722 53.9572 204.722 53.7648C204.722 52.7814 204.465 52.0973 203.952 51.7125C203.46 51.3277 202.552 51.1353 201.226 51.1353C199.858 51.1353 198.928 51.3491 198.437 51.7767C197.966 52.2042 197.731 52.9738 197.731 54.0855V55.6247C197.731 56.7577 197.977 57.5273 198.469 57.9335C198.96 58.3396 199.89 58.5427 201.259 58.5427C202.477 58.5427 203.289 58.4358 203.696 58.2221C204.123 57.9869 204.337 57.6342 204.337 57.1639V56.8111H210.365V57.1959C210.365 58.3931 210.002 59.4513 209.275 60.3705C208.548 61.2898 207.522 62.0166 206.197 62.5511C204.871 63.0641 203.3 63.3207 201.483 63.3207ZM224.549 63.3207C222.646 63.3207 221.214 62.9145 220.252 62.1021C219.29 61.2684 218.691 60.1781 218.456 58.8313H217.526V55.1116H218.135C218.135 55.8598 218.274 56.437 218.552 56.8432C218.852 57.228 219.29 57.4952 219.867 57.6449C220.466 57.7731 221.214 57.8373 222.112 57.8373C223.052 57.8373 223.79 57.7411 224.324 57.5487C224.88 57.3563 225.276 57.0463 225.511 56.6187C225.746 56.1912 225.863 55.6247 225.863 54.9192C225.863 54.1924 225.746 53.6258 225.511 53.2197C225.276 52.7921 224.88 52.4928 224.324 52.3218C223.79 52.1294 223.052 52.0332 222.112 52.0332C220.765 52.0332 219.76 52.2149 219.097 52.5783C218.456 52.9418 218.135 53.7114 218.135 54.8871H217.526L217.077 51.1995H218.071C218.328 49.5961 218.958 48.4204 219.963 47.6721C220.968 46.9025 222.411 46.5177 224.292 46.5177C225.938 46.5177 227.328 46.8598 228.461 47.5439C229.615 48.2066 230.481 49.1686 231.058 50.4299C231.657 51.6698 231.956 53.1662 231.956 54.9192C231.956 56.6722 231.668 58.1793 231.09 59.4406C230.513 60.6805 229.669 61.6425 228.557 62.3266C227.467 62.9893 226.131 63.3207 224.549 63.3207ZM218.135 68.4513H212.107V46.8384H217.751V51.3919L218.135 51.8087V68.4513Z" fill="white"/>
</svg>
