<svg width="155" height="82" viewBox="0 0 155 82" fill="none" xmlns="http://www.w3.org/2000/svg">
<path d="M122.931 40.7543C122.931 61.404 103.154 78.8362 77.8339 78.8362C52.5136 78.8362 32.7369 61.404 32.7369 40.7543C32.7369 20.1046 52.5136 2.67241 77.8339 2.67241C103.154 2.67241 122.931 20.1046 122.931 40.7543Z" stroke="#737373" stroke-width="5.34483"/>
<path d="M152.328 40.7543C152.328 50.5213 144.75 60.0059 131.057 67.2066C117.488 74.3423 98.5568 78.8362 77.5 78.8362C56.4432 78.8362 37.5124 74.3423 23.9431 67.2066C10.2497 60.0059 2.67241 50.5213 2.67241 40.7543C2.67241 30.9873 10.2497 21.5028 23.9431 14.302C37.5124 7.16637 56.4432 2.67241 77.5 2.67241C98.5568 2.67241 117.488 7.16637 131.057 14.302C144.75 21.5028 152.328 30.9873 152.328 40.7543Z" stroke="#737373" stroke-width="5.34483"/>
<path d="M76.498 3.00647V78.8362" stroke="#737373" stroke-width="5.34483"/>
<path d="M27.7261 14.0302C27.7261 14.0302 38.7498 27.3922 76.4976 27.3922C114.245 27.3922 127.608 14.0302 127.608 14.0302" stroke="#737373" stroke-width="5.34483"/>
<path d="M27.7261 70.1509C27.7261 70.1509 38.7498 56.7888 76.4976 56.7888C114.245 56.7888 127.608 70.1509 127.608 70.1509" stroke="#737373" stroke-width="5.34483"/>
<path d="M4.34277 40.7543H153.664" stroke="#737373" stroke-width="5.34483"/>
</svg>
