<svg width="155" height="82" viewBox="0 0 155 82" fill="none" xmlns="http://www.w3.org/2000/svg">
<path fill-rule="evenodd" clip-rule="evenodd" d="M54.2354 2.05797C50.3609 2.69834 46.6176 3.49441 43.032 4.43224L42.8359 4.58273C29.684 14.6725 22.8163 26.8861 22.5702 39.5553C22.3399 51.4124 27.8976 64.2863 40.724 76.8267C43.122 77.5077 45.5961 78.1243 48.1377 78.6718C35.2887 60.6812 32.3137 44.9239 36.4111 30.4911C39.3471 20.1495 45.8392 10.8139 54.2354 2.05797ZM56.9005 80.2431C60.8613 80.8159 64.9491 81.2276 69.1366 81.4639C56.2881 65.6775 51.4752 49.2937 54.3493 34.1282C56.8188 21.0978 64.873 9.44902 77.4918 0.189819C72.9339 0.190069 68.468 0.397222 64.126 0.794391C53.343 10.8386 45.3691 21.0242 42.2137 32.1385C38.4153 45.5181 41.4273 60.9815 56.9005 80.2431ZM87.9232 0.555249C72.1329 9.79957 62.788 21.9954 60.2757 35.2514C57.5904 49.4208 62.5668 65.5761 77.3061 81.6983C77.3707 81.6984 77.4353 81.6984 77.5 81.6984C81.475 81.6984 85.3801 81.5411 89.1939 81.2375C75.513 66.3912 70.104 52.3205 70.878 40.2356C71.6873 27.6004 79.217 17.8052 89.6514 12.2373C99.8091 6.81696 112.775 5.33244 125.431 8.91684C114.819 4.51872 101.967 1.54801 87.9232 0.555249ZM154.995 40.4995C138.901 12.218 110.189 8.11492 92.4911 17.559C83.6034 22.3016 77.5532 30.3858 76.8976 40.6212C76.2378 50.9232 81.0051 64.0685 95.2224 78.8407L96.7528 80.431C99.3208 80.0858 101.838 79.6731 104.296 79.1968C92.3553 67.9882 86.6244 56.7385 85.8016 46.8705C84.9647 36.8333 89.2594 28.4821 96.6965 23.8092C111.204 14.6938 135.239 20.395 153.812 48.0905C154.593 45.7702 155 43.3822 155 40.9441C155 40.7957 154.998 40.6475 154.995 40.4995ZM150.692 54.377L150.346 53.828C132.373 25.2363 110.698 22.1358 99.9056 28.9167C94.4773 32.3274 91.153 38.4578 91.8127 46.3693C92.4794 54.3649 97.2686 64.4222 108.714 75.07L110.922 77.1243L110.196 77.9047C114.472 76.857 118.535 75.6103 122.344 74.187C112.102 66.7766 106.553 59.3416 104.715 52.7936C102.814 46.024 104.941 40.0238 110.101 37.1835C115.065 34.4515 121.781 35.2442 128.013 39.4655C133.966 43.4982 139.73 50.7593 144.02 61.8673C146.703 59.5143 148.946 57.007 150.692 54.377ZM139.022 65.7314C134.975 54.4304 129.566 47.8031 124.63 44.4596C119.64 41.0795 115.396 41.1545 113.01 42.4679C110.82 43.673 109.207 46.4813 110.522 51.1628C111.872 55.9698 116.359 62.5062 126.302 69.6036L128.757 71.3559L128.589 71.5901C132.42 69.8228 135.917 67.86 139.022 65.7314ZM15.6885 16.3562C19.5806 13.6548 24.0983 11.2164 29.1283 9.10071C21.1817 18.131 16.7525 28.4692 16.5394 39.4382C16.3245 50.5033 20.4075 61.8234 28.9088 72.6949C23.9887 70.6101 19.5632 68.2155 15.7395 65.5674C9.20491 53.1873 8.15528 43.3085 9.23878 35.2807C10.2539 27.7598 13.0989 21.779 15.6885 16.3562ZM5.04481 55.4387C2.72768 47.6058 2.42511 40.6675 3.26104 34.4739C3.64332 31.6416 4.26878 28.9726 5.02987 26.4702C1.77959 30.968 0 35.8468 0 40.9441C0 46.0493 1.78504 50.9352 5.04481 55.4387Z" fill="#737373"/>
</svg>
